<svg xmlns="http://www.w3.org/2000/svg" class="bob" font-size="14" viewBox="0 0 920 736" stroke="currentColor" stroke-linecap="round" stroke-linejoin="round" fill="none">
          <defs>
            <marker id="triangle" markerHeight="8" markerWidth="8" orient="auto" refX="4" refY="2" viewBox="0 0 8 4">
              <polygon fill="black" points="0,0 0,4 8,2 0,0"></polygon>
            </marker>
            <marker id="clear_triangle" markerHeight="10" markerWidth="10" orient="auto" refX="1" refY="7" viewBox="0 0 20 14">
              <polygon fill="none" points="2,2 2,12 18,7 2,2" stroke="black" stroke-width="2"></polygon>
            </marker>
            <marker id="circle" markerHeight="5" markerWidth="5" orient="auto" refX="10" refY="10" viewBox="0 0 20 20">
              <circle cx="10" cy="10" fill="black" r="8"></circle>
            </marker>
            <marker id="square" markerHeight="5" markerWidth="5" orient="auto" refX="10" refY="10" viewBox="0 0 20 20">
              <rect fill="black" width="20" height="20" viewBox="0 0 20 20" x="0" y="0"></rect>
            </marker>
            <marker id="open_circle" markerHeight="10" markerWidth="10" orient="auto" refX="10" refY="10" viewBox="0 0 20 20">
              <circle cx="10" cy="10" fill="white" r="4" stroke="black" stroke-width="2"></circle>
            </marker>
            <marker id="big_open_circle" markerHeight="20" markerWidth="20" orient="auto" refX="20" refY="20" viewBox="0 0 40 40">
              <circle cx="20" cy="20" fill="white" r="6" stroke="black" stroke-width="2"></circle>
            </marker>
          </defs>
          <style>
            text{stroke: none; fill: currentColor;}
            polygon{fill:currentColor;}
          </style>
          <g>
            <line x1="4" x2="4" y1="232" y2="264"></line>
            <line x1="4" x2="252" y1="232" y2="232"></line>
            <line x1="4" x2="252" y1="264" y2="264"></line>
            <line x1="252" x2="252" y1="232" y2="264"></line>
          </g>
          <g>
            <line x1="132" x2="132" y1="200" y2="224"></line>
            <line x1="132" x2="236" y1="200" y2="200"></line>
            <line x1="236" x2="236" y1="176" y2="200"></line>
          </g>
          <g>
            <line x1="132" x2="272" y1="536" y2="536"></line>
            <line marker-start="url(#open_circle)" x1="132" x2="132" y1="280" y2="536"></line>
          </g>
          <g>
            <line x1="148" x2="148" y1="360" y2="392"></line>
            <line x1="148" x2="340" y1="360" y2="360"></line>
            <line x1="148" x2="340" y1="392" y2="392"></line>
            <line x1="340" x2="340" y1="360" y2="392"></line>
          </g>
          <g>
            <line x1="148" x2="148" y1="424" y2="456"></line>
            <line x1="148" x2="340" y1="424" y2="424"></line>
            <line x1="148" x2="340" y1="456" y2="456"></line>
            <line x1="340" x2="340" y1="424" y2="456"></line>
          </g>
          <g>
            <line x1="212" x2="212" y1="120" y2="152"></line>
            <line x1="212" x2="332" y1="120" y2="120"></line>
            <line x1="212" x2="332" y1="152" y2="152"></line>
            <line x1="332" x2="332" y1="120" y2="152"></line>
          </g>
          <g>
            <line x1="220" x2="220" y1="40" y2="72"></line>
            <line x1="220" x2="324" y1="40" y2="40"></line>
            <line x1="220" x2="324" y1="72" y2="72"></line>
            <line x1="324" x2="324" y1="40" y2="72"></line>
          </g>
          <g>
            <line marker-end="url(#triangle)" x1="236" x2="236" y1="176" y2="164"></line>
          </g>
          <g>
            <line marker-end="url(#triangle)" x1="276" x2="276" y1="96" y2="84"></line>
            <line x1="276" x2="276" y1="96" y2="112"></line>
          </g>
          <g>
            <line x1="276" x2="276" y1="232" y2="264"></line>
            <line x1="276" x2="500" y1="232" y2="232"></line>
            <line x1="276" x2="500" y1="264" y2="264"></line>
            <line x1="500" x2="500" y1="232" y2="264"></line>
          </g>
          <g>
            <line x1="280" x2="282" y1="544" y2="548"></line>
            <path d="M 280 528 A 16 16 0 0 0 280 544" fill="none"></path>
            <path d="M 282 548 A 8 8 0 0 0 288 552" fill="none"></path>
          </g>
          <g>
            <line x1="282" x2="280" y1="524" y2="528"></line>
            <path d="M 288 520 A 8 8 0 0 0 282 524" fill="none"></path>
          </g>
          <g>
            <line x1="288" x2="448" y1="520" y2="520"></line>
            <path d="M 454 524 A 8 8 0 0 0 448 520" fill="none"></path>
          </g>
          <g>
            <line x1="288" x2="448" y1="552" y2="552"></line>
            <path d="M 448 552 A 8 8 0 0 0 454 548" fill="none"></path>
          </g>
          <g>
            <line marker-end="url(#triangle)" x1="308" x2="308" y1="176" y2="164"></line>
            <line x1="308" x2="308" y1="176" y2="200"></line>
            <line x1="308" x2="412" y1="200" y2="200"></line>
            <line x1="412" x2="412" y1="200" y2="224"></line>
          </g>
          <g>
            <line marker-end="url(#triangle)" x1="352" x2="348" y1="376" y2="376"></line>
            <line x1="352" x2="364" y1="376" y2="376"></line>
            <line x1="364" x2="364" y1="376" y2="408"></line>
            <line x1="364" x2="364" y1="408" y2="440"></line>
            <line x1="364" x2="396" y1="408" y2="408"></line>
          </g>
          <g>
            <line marker-end="url(#triangle)" x1="352" x2="348" y1="440" y2="440"></line>
            <line x1="352" x2="364" y1="440" y2="440"></line>
          </g>
          <g>
            <line x1="372" x2="372" y1="472" y2="512"></line>
            <line x1="372" x2="420" y1="472" y2="472"></line>
            <line marker-start="url(#open_circle)" x1="420" x2="420" y1="440" y2="472"></line>
          </g>
          <g>
            <line x1="372" x2="372" y1="560" y2="696"></line>
            <line marker-end="url(#open_circle)" x1="372" x2="484" y1="696" y2="696"></line>
          </g>
          <g>
            <line x1="396" x2="396" y1="392" y2="424"></line>
            <line x1="396" x2="548" y1="392" y2="392"></line>
            <line x1="396" x2="548" y1="424" y2="424"></line>
            <line x1="548" x2="548" y1="392" y2="424"></line>
          </g>
          <g>
            <line x1="454" x2="456" y1="524" y2="528"></line>
            <path d="M 456 544 A 16 16 0 0 0 456 528" fill="none"></path>
          </g>
          <g>
            <line x1="454" x2="456" y1="548" y2="544"></line>
          </g>
          <g>
            <line marker-end="url(#triangle)" x1="468" x2="468" y1="288" y2="276"></line>
            <line x1="468" x2="468" y1="288" y2="384"></line>
          </g>
          <g>
            <line x1="492" x2="492" y1="520" y2="552"></line>
            <line x1="492" x2="756" y1="520" y2="520"></line>
            <line x1="492" x2="756" y1="552" y2="552"></line>
            <line x1="756" x2="756" y1="520" y2="552"></line>
          </g>
          <g>
            <line x1="492" x2="492" y1="600" y2="632"></line>
            <line x1="492" x2="756" y1="600" y2="600"></line>
            <line x1="492" x2="756" y1="632" y2="632"></line>
            <line x1="756" x2="756" y1="600" y2="632"></line>
          </g>
          <g>
            <line x1="492" x2="492" y1="680" y2="712"></line>
            <line x1="492" x2="756" y1="680" y2="680"></line>
            <line x1="492" x2="756" y1="712" y2="712"></line>
            <line x1="756" x2="756" y1="680" y2="712"></line>
          </g>
          <g>
            <line x1="508" x2="508" y1="120" y2="152"></line>
            <line x1="508" x2="908" y1="120" y2="120"></line>
            <line x1="508" x2="908" y1="152" y2="152"></line>
            <line x1="908" x2="908" y1="120" y2="152"></line>
          </g>
          <g>
            <line x1="524" x2="524" y1="296" y2="384"></line>
            <line marker-end="url(#triangle)" x1="524" x2="548" y1="296" y2="296"></line>
          </g>
          <g>
            <line x1="524" x2="524" y1="432" y2="472"></line>
            <line x1="524" x2="628" y1="472" y2="472"></line>
            <line marker-end="url(#triangle)" x1="628" x2="628" y1="472" y2="508"></line>
          </g>
          <g>
            <line x1="548" x2="596" y1="408" y2="408"></line>
            <line x1="596" x2="596" y1="376" y2="408"></line>
            <line marker-end="url(#triangle)" x1="596" x2="636" y1="376" y2="376"></line>
            <line x1="596" x2="596" y1="408" y2="440"></line>
            <line marker-end="url(#triangle)" x1="596" x2="636" y1="440" y2="440"></line>
          </g>
          <g>
            <line x1="556" x2="556" y1="40" y2="72"></line>
            <line x1="556" x2="860" y1="40" y2="40"></line>
            <line x1="556" x2="860" y1="72" y2="72"></line>
            <line x1="860" x2="860" y1="40" y2="72"></line>
          </g>
          <g>
            <line x1="556" x2="556" y1="280" y2="312"></line>
            <line x1="556" x2="868" y1="280" y2="280"></line>
            <line x1="556" x2="868" y1="312" y2="312"></line>
            <line x1="868" x2="868" y1="280" y2="312"></line>
          </g>
          <g>
            <line x1="580" x2="580" y1="200" y2="232"></line>
            <line x1="580" x2="844" y1="200" y2="200"></line>
            <line x1="580" x2="844" y1="232" y2="232"></line>
            <line x1="844" x2="844" y1="200" y2="232"></line>
          </g>
          <g>
            <line marker-end="url(#triangle)" x1="628" x2="628" y1="560" y2="588"></line>
          </g>
          <g>
            <line marker-end="url(#triangle)" x1="628" x2="628" y1="656" y2="644"></line>
            <line x1="628" x2="628" y1="656" y2="672"></line>
          </g>
          <g>
            <line x1="644" x2="644" y1="360" y2="392"></line>
            <line x1="644" x2="748" y1="360" y2="360"></line>
            <line x1="644" x2="748" y1="392" y2="392"></line>
            <line x1="748" x2="748" y1="360" y2="392"></line>
          </g>
          <g>
            <line x1="644" x2="644" y1="424" y2="456"></line>
            <line x1="644" x2="748" y1="424" y2="424"></line>
            <line x1="644" x2="748" y1="456" y2="456"></line>
            <line x1="748" x2="748" y1="424" y2="456"></line>
          </g>
          <g>
            <line marker-end="url(#triangle)" x1="708" x2="708" y1="96" y2="84"></line>
            <line x1="708" x2="708" y1="96" y2="112"></line>
          </g>
          <g>
            <line marker-end="url(#triangle)" x1="708" x2="708" y1="176" y2="164"></line>
            <line x1="708" x2="708" y1="176" y2="192"></line>
          </g>
          <g>
            <line marker-end="url(#triangle)" x1="708" x2="708" y1="256" y2="244"></line>
            <line x1="708" x2="708" y1="256" y2="272"></line>
          </g>
          <g>
            <line x1="748" x2="772" y1="376" y2="376"></line>
            <line x1="772" x2="772" y1="344" y2="376"></line>
            <line x1="772" x2="852" y1="344" y2="344"></line>
            <line marker-end="url(#triangle)" x1="852" x2="852" y1="344" y2="380"></line>
          </g>
          <g>
            <line x1="748" x2="772" y1="440" y2="440"></line>
            <line x1="772" x2="772" y1="440" y2="472"></line>
            <line x1="772" x2="852" y1="472" y2="472"></line>
            <line x1="852" x2="852" y1="448" y2="472"></line>
          </g>
          <g>
            <line x1="796" x2="796" y1="392" y2="424"></line>
            <line x1="796" x2="908" y1="392" y2="392"></line>
            <line x1="796" x2="908" y1="424" y2="424"></line>
            <line x1="908" x2="908" y1="392" y2="424"></line>
          </g>
          <g>
            <line marker-end="url(#triangle)" x1="852" x2="852" y1="448" y2="436"></line>
          </g>
          <g>
            <text x="17" y="252">RangeReplaceableCollection</text>
          </g>
          <g>
            <text x="161" y="444">TextOutputStreamable</text>
          </g>
          <g>
            <text x="177" y="380">TextOutputStream</text>
          </g>
          <g>
            <text x="225" y="140">Collection</text>
          </g>
          <g>
            <text x="233" y="60">Sequence</text>
          </g>
          <g>
            <text x="289" y="252">BidirectionalCollection</text>
          </g>
          <g>
            <text x="329" y="540">String</text>
          </g>
          <g>
            <text x="409" y="412">StringProtocol</text>
          </g>
          <g>
            <text x="505" y="700">CustomDebugStringConvertible</text>
          </g>
          <g>
            <text x="513" y="540">LosslessStringConvertible</text>
          </g>
          <g>
            <text x="521" y="620">CustomStringConvertible</text>
          </g>
          <g>
            <text x="529" y="140">
              ExpressibleByExtendedGraphemeClusterLiteral</text>
          </g>
          <g>
            <text x="569" y="60">ExpressibleByUnicodeScalarLiteral</text>
          </g>
          <g>
            <text x="577" y="300">ExpressibleByStringInterpolation</text>
          </g>
          <g>
            <text x="601" y="220">ExpressibleByStringLiteral</text>
          </g>
          <g>
            <text x="649" y="380">Comparable</text>
          </g>
          <g>
            <text x="657" y="444">Hashable</text>
          </g>
          <g>
            <text x="809" y="412">Equatable</text>
          </g>
        </svg>
