<svg xmlns="http://www.w3.org/2000/svg" font-size="14" viewBox="0 0 808 592" stroke="currentColor" stroke-linecap="round" stroke-linejoin="round" fill="none">
            <defs>
              <marker id="triangle" markerHeight="8" markerWidth="8" orient="auto" refX="4" refY="2" viewBox="0 0 8 4">
                <polygon fill="black" points="0,0 0,4 8,2 0,0"></polygon>
              </marker>
              <marker id="clear_triangle" markerHeight="10" markerWidth="10" orient="auto" refX="1" refY="7" viewBox="0 0 20 14">
                <polygon fill="none" points="2,2 2,12 18,7 2,2" stroke="black" stroke-width="2"></polygon>
              </marker>
              <marker id="circle" markerHeight="5" markerWidth="5" orient="auto" refX="10" refY="10" viewBox="0 0 20 20">
                <circle cx="10" cy="10" fill="black" r="8"></circle>
              </marker>
              <marker id="square" markerHeight="5" markerWidth="5" orient="auto" refX="10" refY="10" viewBox="0 0 20 20">
                <rect fill="black" width="20" height="20" viewBox="0 0 20 20" x="0" y="0"></rect>
              </marker>
              <marker id="open_circle" markerHeight="10" markerWidth="10" orient="auto" refX="10" refY="10" viewBox="0 0 20 20">
                <circle cx="10" cy="10" fill="white" r="4" stroke="black" stroke-width="2"></circle>
              </marker>
              <marker id="big_open_circle" markerHeight="20" markerWidth="20" orient="auto" refX="20" refY="20" viewBox="0 0 40 40">
                <circle cx="20" cy="20" fill="white" r="6" stroke="black" stroke-width="2"></circle>
              </marker>
            </defs>
            <style>
              text{stroke: none; fill: currentColor;}
              polygon{fill:currentColor;}
            </style>
            <g>
              <line x1="12" x2="12" y1="104" y2="520"></line>
              <line marker-end="url(#triangle)" x1="12" x2="60" y1="104" y2="104"></line>
              <line x1="12" x2="36" y1="520" y2="520"></line>
              <line x1="36" x2="36" y1="460" y2="520"></line>
              <line x1="36" x2="36" y1="520" y2="580"></line>
              <path d="M 36 580 A 4 4 0 0 0 40 584" fill="none"></path>
              <path d="M 40 456 A 4 4 0 0 0 36 460" fill="none"></path>
            </g>
            <g>
              <line x1="40" x2="56" y1="456" y2="456"></line>
            </g>
            <g>
              <line x1="40" x2="56" y1="584" y2="584"></line>
            </g>
            <g>
              <line x1="44" x2="44" y1="168" y2="312"></line>
              <line marker-end="url(#triangle)" x1="44" x2="60" y1="168" y2="168"></line>
              <line x1="44" x2="84" y1="312" y2="312"></line>
            </g>
            <g>
              <line x1="68" x2="68" y1="88" y2="120"></line>
              <line x1="68" x2="308" y1="88" y2="88"></line>
              <line x1="68" x2="308" y1="120" y2="120"></line>
              <line x1="308" x2="308" y1="88" y2="120"></line>
            </g>
            <g>
              <line x1="68" x2="68" y1="152" y2="184"></line>
              <line x1="68" x2="308" y1="152" y2="152"></line>
              <line x1="68" x2="308" y1="184" y2="184"></line>
              <line x1="308" x2="308" y1="152" y2="184"></line>
            </g>
            <g>
              <line x1="72" x2="74" y1="496" y2="500"></line>
              <path d="M 72 480 A 16 16 0 0 0 72 496" fill="none"></path>
              <path d="M 74 500 A 8 8 0 0 0 80 504" fill="none"></path>
            </g>
            <g>
              <line x1="74" x2="72" y1="476" y2="480"></line>
              <path d="M 80 472 A 8 8 0 0 0 74 476" fill="none"></path>
            </g>
            <g>
              <line x1="80" x2="136" y1="472" y2="472"></line>
              <path d="M 142 476 A 8 8 0 0 0 136 472" fill="none"></path>
            </g>
            <g>
              <line x1="80" x2="136" y1="504" y2="504"></line>
              <path d="M 136 504 A 8 8 0 0 0 142 500" fill="none"></path>
            </g>
            <g>
              <line x1="84" x2="84" y1="296" y2="328"></line>
              <line x1="84" x2="260" y1="296" y2="296"></line>
              <line x1="84" x2="260" y1="328" y2="328"></line>
              <line x1="260" x2="260" y1="296" y2="328"></line>
            </g>
            <g>
              <line x1="84" x2="84" y1="392" y2="424"></line>
              <line x1="84" x2="260" y1="392" y2="392"></line>
              <line x1="84" x2="260" y1="424" y2="424"></line>
              <line x1="260" x2="260" y1="392" y2="424"></line>
            </g>
            <g>
              <line x1="128" x2="130" y1="560" y2="564"></line>
              <path d="M 128 544 A 16 16 0 0 0 128 560" fill="none"></path>
              <path d="M 130 564 A 8 8 0 0 0 136 568" fill="none"></path>
            </g>
            <g>
              <line x1="130" x2="128" y1="540" y2="544"></line>
              <path d="M 136 536 A 8 8 0 0 0 130 540" fill="none"></path>
            </g>
            <g>
              <line x1="136" x2="208" y1="536" y2="536"></line>
              <path d="M 214 540 A 8 8 0 0 0 208 536" fill="none"></path>
            </g>
            <g>
              <line x1="136" x2="208" y1="568" y2="568"></line>
              <path d="M 208 568 A 8 8 0 0 0 214 564" fill="none"></path>
            </g>
            <g>
              <line x1="142" x2="144" y1="476" y2="480"></line>
              <path d="M 144 496 A 16 16 0 0 0 144 480" fill="none"></path>
            </g>
            <g>
              <line x1="142" x2="144" y1="500" y2="496"></line>
            </g>
            <g>
              <line x1="172" x2="172" y1="248" y2="288"></line>
              <line marker-end="url(#triangle)" x1="172" x2="244" y1="248" y2="248"></line>
            </g>
            <g>
              <line marker-end="url(#triangle)" x1="172" x2="172" y1="352" y2="340"></line>
              <line x1="172" x2="172" y1="352" y2="384"></line>
            </g>
            <g>
              <line x1="200" x2="202" y1="496" y2="500"></line>
              <path d="M 200 480 A 16 16 0 0 0 200 496" fill="none"></path>
              <path d="M 202 500 A 8 8 0 0 0 208 504" fill="none"></path>
            </g>
            <g>
              <line x1="202" x2="200" y1="476" y2="480"></line>
              <path d="M 208 472 A 8 8 0 0 0 202 476" fill="none"></path>
            </g>
            <g>
              <line x1="208" x2="272" y1="472" y2="472"></line>
              <path d="M 278 476 A 8 8 0 0 0 272 472" fill="none"></path>
            </g>
            <g>
              <line x1="208" x2="272" y1="504" y2="504"></line>
              <path d="M 272 504 A 8 8 0 0 0 278 500" fill="none"></path>
            </g>
            <g>
              <line x1="214" x2="216" y1="540" y2="544"></line>
              <path d="M 216 560 A 16 16 0 0 0 216 544" fill="none"></path>
            </g>
            <g>
              <line x1="214" x2="216" y1="564" y2="560"></line>
            </g>
            <g>
              <line x1="252" x2="252" y1="232" y2="264"></line>
              <line x1="252" x2="428" y1="232" y2="232"></line>
              <line x1="252" x2="428" y1="264" y2="264"></line>
              <line x1="428" x2="428" y1="232" y2="264"></line>
            </g>
            <g>
              <line x1="278" x2="280" y1="476" y2="480"></line>
              <path d="M 280 496 A 16 16 0 0 0 280 480" fill="none"></path>
            </g>
            <g>
              <line x1="278" x2="280" y1="500" y2="496"></line>
            </g>
            <g>
              <line x1="308" x2="308" y1="472" y2="504"></line>
              <line x1="308" x2="484" y1="472" y2="472"></line>
              <line x1="308" x2="484" y1="504" y2="504"></line>
              <line x1="484" x2="484" y1="472" y2="504"></line>
            </g>
            <g>
              <line marker-end="url(#triangle)" x1="320" x2="316" y1="104" y2="104"></line>
              <line x1="320" x2="428" y1="104" y2="104"></line>
              <line x1="428" x2="428" y1="104" y2="160"></line>
            </g>
            <g>
              <line x1="340" x2="340" y1="184" y2="224"></line>
              <line marker-end="url(#triangle)" x1="340" x2="396" y1="184" y2="184"></line>
            </g>
            <g>
              <line marker-end="url(#triangle)" x1="340" x2="340" y1="288" y2="276"></line>
              <line x1="340" x2="340" y1="288" y2="464"></line>
            </g>
            <g>
              <line x1="376" x2="378" y1="576" y2="580"></line>
              <path d="M 376 560 A 16 16 0 0 0 376 576" fill="none"></path>
              <path d="M 378 580 A 8 8 0 0 0 384 584" fill="none"></path>
            </g>
            <g>
              <line x1="378" x2="376" y1="556" y2="560"></line>
              <path d="M 384 552 A 8 8 0 0 0 378 556" fill="none"></path>
            </g>
            <g>
              <line x1="380" x2="380" y1="376" y2="464"></line>
              <line x1="380" x2="476" y1="376" y2="376"></line>
              <line x1="476" x2="476" y1="352" y2="376"></line>
            </g>
            <g>
              <line x1="384" x2="424" y1="552" y2="552"></line>
              <path d="M 430 556 A 8 8 0 0 0 424 552" fill="none"></path>
            </g>
            <g>
              <line x1="384" x2="424" y1="584" y2="584"></line>
              <path d="M 424 584 A 8 8 0 0 0 430 580" fill="none"></path>
            </g>
            <g>
              <line x1="404" x2="404" y1="168" y2="200"></line>
              <line x1="404" x2="580" y1="168" y2="168"></line>
              <line x1="404" x2="580" y1="200" y2="200"></line>
              <line x1="580" x2="580" y1="168" y2="200"></line>
            </g>
            <g>
              <line x1="412" x2="412" y1="24" y2="56"></line>
              <line x1="412" x2="580" y1="24" y2="24"></line>
              <line x1="412" x2="580" y1="56" y2="56"></line>
              <line x1="580" x2="580" y1="24" y2="56"></line>
            </g>
            <g>
              <line x1="430" x2="432" y1="556" y2="560"></line>
              <path d="M 432 576 A 16 16 0 0 0 432 560" fill="none"></path>
            </g>
            <g>
              <line x1="430" x2="432" y1="580" y2="576"></line>
            </g>
            <g>
              <line x1="440" x2="516" y1="568" y2="568"></line>
              <line marker-start="url(#open_circle)" x1="516" x2="516" y1="440" y2="568"></line>
            </g>
            <g>
              <line x1="452" x2="452" y1="296" y2="328"></line>
              <line x1="452" x2="628" y1="296" y2="296"></line>
              <line x1="452" x2="628" y1="328" y2="328"></line>
              <line x1="628" x2="628" y1="296" y2="328"></line>
            </g>
            <g>
              <line x1="452" x2="452" y1="392" y2="424"></line>
              <line x1="452" x2="628" y1="392" y2="392"></line>
              <line x1="452" x2="628" y1="424" y2="424"></line>
              <line x1="628" x2="628" y1="392" y2="424"></line>
            </g>
            <g>
              <line marker-end="url(#triangle)" x1="476" x2="476" y1="352" y2="340"></line>
            </g>
            <g>
              <line marker-end="url(#triangle)" x1="492" x2="492" y1="80" y2="68"></line>
              <line x1="492" x2="492" y1="80" y2="160"></line>
            </g>
            <g>
              <line marker-end="url(#triangle)" x1="492" x2="492" y1="224" y2="212"></line>
              <line x1="492" x2="492" y1="224" y2="288"></line>
            </g>
            <g>
              <line marker-end="url(#triangle)" x1="532" x2="532" y1="352" y2="340"></line>
              <line x1="532" x2="532" y1="352" y2="384"></line>
            </g>
            <g>
              <line x1="548" x2="616" y1="568" y2="568"></line>
              <line marker-start="url(#open_circle)" x1="548" x2="548" y1="440" y2="568"></line>
            </g>
            <g>
              <line x1="556" x2="556" y1="88" y2="120"></line>
              <line x1="556" x2="732" y1="88" y2="88"></line>
              <line x1="556" x2="732" y1="120" y2="120"></line>
              <line x1="732" x2="732" y1="88" y2="120"></line>
            </g>
            <g>
              <line x1="556" x2="556" y1="232" y2="264"></line>
              <line x1="556" x2="732" y1="232" y2="232"></line>
              <line x1="556" x2="732" y1="264" y2="264"></line>
              <line x1="732" x2="732" y1="232" y2="264"></line>
            </g>
            <g>
              <line x1="580" x2="620" y1="184" y2="184"></line>
              <line x1="620" x2="620" y1="144" y2="184"></line>
            </g>
            <g>
              <line x1="580" x2="580" y1="472" y2="504"></line>
              <line x1="580" x2="756" y1="472" y2="472"></line>
              <line x1="580" x2="756" y1="504" y2="504"></line>
              <line x1="756" x2="756" y1="472" y2="504"></line>
            </g>
            <g>
              <line marker-end="url(#triangle)" x1="588" x2="588" y1="352" y2="340"></line>
              <line x1="588" x2="588" y1="352" y2="376"></line>
              <line x1="588" x2="700" y1="376" y2="376"></line>
              <line x1="700" x2="700" y1="376" y2="464"></line>
            </g>
            <g>
              <line marker-end="url(#triangle)" x1="620" x2="620" y1="144" y2="132"></line>
            </g>
            <g>
              <line x1="624" x2="626" y1="576" y2="580"></line>
              <path d="M 624 560 A 16 16 0 0 0 624 576" fill="none"></path>
              <path d="M 626 580 A 8 8 0 0 0 632 584" fill="none"></path>
            </g>
            <g>
              <line x1="626" x2="624" y1="556" y2="560"></line>
              <path d="M 632 552 A 8 8 0 0 0 626 556" fill="none"></path>
            </g>
            <g>
              <line x1="628" x2="676" y1="312" y2="312"></line>
              <line x1="676" x2="676" y1="288" y2="312"></line>
            </g>
            <g>
              <line x1="632" x2="696" y1="552" y2="552"></line>
              <path d="M 702 556 A 8 8 0 0 0 696 552" fill="none"></path>
            </g>
            <g>
              <line x1="632" x2="696" y1="584" y2="584"></line>
              <path d="M 696 584 A 8 8 0 0 0 702 580" fill="none"></path>
            </g>
            <g>
              <line marker-end="url(#triangle)" x1="676" x2="676" y1="144" y2="132"></line>
              <line x1="676" x2="676" y1="144" y2="224"></line>
            </g>
            <g>
              <line marker-end="url(#triangle)" x1="676" x2="676" y1="288" y2="276"></line>
            </g>
            <g>
              <line x1="702" x2="704" y1="556" y2="560"></line>
              <path d="M 704 576 A 16 16 0 0 0 704 560" fill="none"></path>
            </g>
            <g>
              <line x1="702" x2="704" y1="580" y2="576"></line>
            </g>
            <g>
              <text x="81" y="108">ExpressibleByIntegerLiteral</text>
            </g>
            <g>
              <text x="81" y="492">Float</text>
            </g>
            <g>
              <text x="89" y="172">ExpressibleByFloatLiteral</text>
            </g>
            <g>
              <text x="97" y="316">BinaryFloatingPoint</text>
            </g>
            <g>
              <text x="121" y="412">FloatingPoint</text>
            </g>
            <g>
              <text x="137" y="556">Float80</text>
            </g>
            <g>
              <text x="209" y="492">Double</text>
            </g>
            <g>
              <text x="289" y="252">SignedNumeric</text>
            </g>
            <g>
              <text x="345" y="492">SignedInteger</text>
            </g>
            <g>
              <text x="385" y="572">Int</text>
            </g>
            <g>
              <text x="425" y="44">AdditiveArithmetic</text>
            </g>
            <g>
              <text x="465" y="188">Numeric</text>
            </g>
            <g>
              <text x="473" y="412">FixedWidthInteger</text>
            </g>
            <g>
              <text x="489" y="316">BinaryInteger</text>
            </g>
            <g>
              <text x="601" y="252">Comparable</text>
            </g>
            <g>
              <text x="609" y="108">Equatable</text>
            </g>
            <g>
              <text x="609" y="492">UnsignedInteger</text>
            </g>
            <g>
              <text x="641" y="572">UInt</text>
            </g>
            <g>
              <line marker-start="url(#open_circle)" x1="108" x2="108" y1="440" y2="464"></line>
            </g>
            <g>
              <line marker-start="url(#open_circle)" x1="172" x2="172" y1="440" y2="528"></line>
            </g>
            <g>
              <line marker-start="url(#open_circle)" x1="236" x2="236" y1="440" y2="464"></line>
            </g>
            <g>
              <line marker-start="url(#open_circle)" x1="404" x2="404" y1="520" y2="544"></line>
            </g>
            <g>
              <line marker-start="url(#open_circle)" x1="660" x2="660" y1="520" y2="544"></line>
            </g>
          </svg>
